# MagicaVoxel @ Ephtracy

# group
o 

# material
mtllib Shelve-3.mtl
usemtl palette

# normals
vn 0 0 1
vn 0 0 -1
vn 1 0 0
vn -1 0 0
vn 0 -1 0
vn 0 1 0

# texcoords
vt 0.0175781 0.5
vt 0.0214844 0.5
vt 0.0371094 0.5

# verts
v 0.1 -0.4 0.5
v -0.1 -0.4 0.5
v 0.1 -0.2 0.5
v -0.1 -0.2 0.5
v 0.1 -0.1 0.5
v -0.1 -0.1 0.5
v 0.1 0.2 0.5
v -0.1 0.2 0.5
v 0.1 0.3 0.5
v -0.1 0.3 0.5
v 0.1 0.4 0.5
v -0.1 0.4 0.5
v 0.2 -0.4 0.4
v 0.1 -0.4 0.4
v -0.1 -0.4 0.4
v -0.2 -0.4 0.4
v 0.1 -0.2 0.4
v -0.1 -0.2 0.4
v 0.1 -0.1 0.4
v -0.1 -0.1 0.4
v 0.1 0.2 0.4
v -0.1 0.2 0.4
v 0.1 0.3 0.4
v -0.1 0.3 0.4
v 0.2 0.4 0.4
v 0.1 0.4 0.4
v -0.1 0.4 0.4
v -0.2 0.4 0.4
v 0.1 -0.4 0.4
v -0.1 -0.4 0.4
v 0.1 -0.3 0.4
v -0.1 -0.3 0.4
v 0.1 0.3 0.4
v -0.1 0.3 0.4
v 0.1 0.4 0.4
v -0.1 0.4 0.4
v 0.1 -0.3 0
v -0.1 -0.3 0
v 0.1 0.3 0
v -0.1 0.3 0
v 0.2 -0.4 -0.1
v 0.1 -0.4 -0.1
v -0.1 -0.4 -0.1
v -0.2 -0.4 -0.1
v 0.2 0.4 -0.1
v 0.1 0.4 -0.1
v -0.1 0.4 -0.1
v -0.2 0.4 -0.1
v 0.2 -0.4 0.4
v 0.2 0.4 0.4
v 0.2 -0.3 0.3
v 0.2 -0.2 0.3
v 0.2 0 0.3
v 0.2 0.1 0.3
v 0.2 0.2 0.3
v 0.2 0.3 0.3
v 0.2 -0.1 0.1
v 0.2 0 0.1
v 0.2 0.1 0.1
v 0.2 -0.3 0
v 0.2 -0.2 0
v 0.2 -0.1 0
v 0.2 0 0
v 0.2 0.2 0
v 0.2 0.3 0
v 0.2 -0.4 -0.1
v 0.2 0.4 -0.1
v 0.1 -0.4 0.5
v 0.1 -0.2 0.5
v 0.1 -0.1 0.5
v 0.1 0.2 0.5
v 0.1 0.3 0.5
v 0.1 0.4 0.5
v 0.1 -0.4 0.4
v 0.1 -0.2 0.4
v 0.1 -0.1 0.4
v 0.1 0.2 0.4
v 0.1 0.3 0.4
v 0.1 0.4 0.4
v -0.1 -0.4 0.4
v -0.1 -0.3 0.4
v -0.1 0.3 0.4
v -0.1 0.4 0.4
v -0.1 -0.3 0
v -0.1 0.3 0
v -0.1 -0.4 -0.1
v -0.1 0.4 -0.1
v 0.1 -0.4 0.4
v 0.1 -0.3 0.4
v 0.1 0.3 0.4
v 0.1 0.4 0.4
v 0.1 -0.3 0
v 0.1 0.3 0
v 0.1 -0.4 -0.1
v 0.1 0.4 -0.1
v -0.1 -0.4 0.5
v -0.1 -0.2 0.5
v -0.1 -0.1 0.5
v -0.1 0.2 0.5
v -0.1 0.3 0.5
v -0.1 0.4 0.5
v -0.1 -0.4 0.4
v -0.1 -0.2 0.4
v -0.1 -0.1 0.4
v -0.1 0.2 0.4
v -0.1 0.3 0.4
v -0.1 0.4 0.4
v -0.2 -0.4 0.4
v -0.2 0.4 0.4
v -0.2 -0.4 -0.1
v -0.2 0.4 -0.1
v 0.2 -0.4 0.4
v 0.2 -0.4 -0.1
v 0.1 -0.4 0.5
v 0.1 -0.4 0.4
v 0.1 -0.4 -0.1
v -0.1 -0.4 0.5
v -0.1 -0.4 0.4
v -0.1 -0.4 -0.1
v -0.2 -0.4 0.4
v -0.2 -0.4 -0.1
v 0.1 -0.3 0.4
v 0.1 -0.3 0
v -0.1 -0.3 0.4
v -0.1 -0.3 0
v 0.1 0.3 0.4
v 0.1 0.3 0
v -0.1 0.3 0.4
v -0.1 0.3 0
v 0.2 0.4 0.4
v 0.2 0.4 -0.1
v 0.1 0.4 0.5
v 0.1 0.4 0.4
v 0.1 0.4 -0.1
v -0.1 0.4 0.5
v -0.1 0.4 0.4
v -0.1 0.4 -0.1
v -0.2 0.4 0.4
v -0.2 0.4 -0.1

# faces
f 3/1/1 2/1/1 1/1/1
f 4/1/1 2/1/1 3/1/1
f 5/2/1 4/2/1 3/2/1
f 6/2/1 4/2/1 5/2/1
f 7/1/1 6/1/1 5/1/1
f 8/1/1 6/1/1 7/1/1
f 9/2/1 8/2/1 7/2/1
f 10/2/1 8/2/1 9/2/1
f 11/1/1 10/1/1 9/1/1
f 12/1/1 10/1/1 11/1/1
f 17/1/1 14/1/1 13/1/1
f 18/1/1 16/1/1 15/1/1
f 19/1/1 17/1/1 13/1/1
f 20/1/1 16/1/1 18/1/1
f 21/1/1 19/1/1 13/1/1
f 22/1/1 16/1/1 20/1/1
f 23/1/1 21/1/1 13/1/1
f 24/1/1 16/1/1 22/1/1
f 25/1/1 23/1/1 13/1/1
f 26/1/1 23/1/1 25/1/1
f 27/1/1 16/1/1 24/1/1
f 28/1/1 16/1/1 27/1/1
f 29/1/2 30/1/2 31/1/2
f 31/1/2 30/1/2 32/1/2
f 33/1/2 34/1/2 35/1/2
f 35/1/2 34/1/2 36/1/2
f 37/3/2 38/3/2 39/3/2
f 39/3/2 38/3/2 40/3/2
f 41/1/2 42/1/2 45/1/2
f 45/1/2 42/1/2 46/1/2
f 43/1/2 44/1/2 47/1/2
f 47/1/2 44/1/2 48/1/2
f 51/1/3 50/1/3 49/1/3
f 52/1/3 50/1/3 51/1/3
f 53/1/3 50/1/3 52/1/3
f 54/1/3 50/1/3 53/1/3
f 55/1/3 50/1/3 54/1/3
f 56/1/3 50/1/3 55/1/3
f 57/1/3 53/1/3 52/1/3
f 58/2/3 54/2/3 53/2/3
f 58/1/3 53/1/3 57/1/3
f 59/1/3 55/1/3 54/1/3
f 59/2/3 54/2/3 58/2/3
f 60/1/3 51/1/3 49/1/3
f 60/2/3 52/2/3 51/2/3
f 61/1/3 57/1/3 52/1/3
f 61/2/3 52/2/3 60/2/3
f 62/2/3 58/2/3 57/2/3
f 62/1/3 57/1/3 61/1/3
f 63/1/3 59/1/3 58/1/3
f 63/2/3 58/2/3 62/2/3
f 64/1/3 55/1/3 59/1/3
f 64/1/3 59/1/3 63/1/3
f 64/2/3 56/2/3 55/2/3
f 65/1/3 50/1/3 56/1/3
f 65/2/3 56/2/3 64/2/3
f 66/1/3 63/1/3 62/1/3
f 66/1/3 62/1/3 61/1/3
f 66/1/3 65/1/3 64/1/3
f 66/1/3 61/1/3 60/1/3
f 66/1/3 60/1/3 49/1/3
f 66/1/3 64/1/3 63/1/3
f 67/1/3 50/1/3 65/1/3
f 67/1/3 65/1/3 66/1/3
f 74/1/3 69/1/3 68/1/3
f 75/2/3 70/2/3 69/2/3
f 75/1/3 69/1/3 74/1/3
f 76/1/3 71/1/3 70/1/3
f 76/2/3 70/2/3 75/2/3
f 77/2/3 72/2/3 71/2/3
f 77/1/3 71/1/3 76/1/3
f 78/1/3 73/1/3 72/1/3
f 78/2/3 72/2/3 77/2/3
f 79/1/3 73/1/3 78/1/3
f 84/1/3 81/1/3 80/1/3
f 85/1/3 83/1/3 82/1/3
f 86/1/3 84/1/3 80/1/3
f 86/1/3 85/1/3 84/1/3
f 87/1/3 83/1/3 85/1/3
f 87/1/3 85/1/3 86/1/3
f 88/1/4 89/1/4 92/1/4
f 90/1/4 91/1/4 93/1/4
f 88/1/4 92/1/4 94/1/4
f 92/1/4 93/1/4 94/1/4
f 93/1/4 91/1/4 95/1/4
f 94/1/4 93/1/4 95/1/4
f 96/1/4 97/1/4 102/1/4
f 97/2/4 98/2/4 103/2/4
f 102/1/4 97/1/4 103/1/4
f 98/1/4 99/1/4 104/1/4
f 103/2/4 98/2/4 104/2/4
f 99/2/4 100/2/4 105/2/4
f 104/1/4 99/1/4 105/1/4
f 100/1/4 101/1/4 106/1/4
f 105/2/4 100/2/4 106/2/4
f 106/1/4 101/1/4 107/1/4
f 108/1/4 109/1/4 110/1/4
f 110/1/4 109/1/4 111/1/4
f 115/1/5 113/1/5 112/1/5
f 116/1/5 113/1/5 115/1/5
f 117/1/5 115/1/5 114/1/5
f 118/1/5 115/1/5 117/1/5
f 120/1/5 119/1/5 118/1/5
f 121/1/5 119/1/5 120/1/5
f 124/3/5 123/3/5 122/3/5
f 125/3/5 123/3/5 124/3/5
f 126/3/6 127/3/6 128/3/6
f 128/3/6 127/3/6 129/3/6
f 130/1/6 131/1/6 133/1/6
f 133/1/6 131/1/6 134/1/6
f 132/1/6 133/1/6 135/1/6
f 135/1/6 133/1/6 136/1/6
f 136/1/6 137/1/6 138/1/6
f 138/1/6 137/1/6 139/1/6
