# MagicaVoxel @ Ephtracy

# group
o 

# material
mtllib Wardrobe-0.mtl
usemtl palette

# normals
vn -1 0 0
vn 1 0 0
vn 0 0 1
vn 0 0 -1
vn 0 -1 0
vn 0 1 0

# texcoords
vt 0.0449219 0.5
vt 0.0488281 0.5

# verts
v -2.4 0.7 0.2
v -2.4 0.7 -1
v -2.4 0.8 0.7
v -2.4 0.8 0.2
v -2.4 1.5 0.8
v -2.4 1.5 0.7
v -2.4 1.9 0.8
v -2.4 1.9 0.7
v -2.4 4.4 0.8
v -2.4 4.4 0.7
v -2.4 4.8 0.8
v -2.4 4.8 0.7
v -2.4 6.1 0.7
v -2.4 6.1 -1
v -2.3 0.8 0.8
v -2.3 0.8 0.7
v -2.3 1.5 0.8
v -2.3 1.5 0.7
v -2.3 1.9 0.8
v -2.3 1.9 0.7
v -2.3 4.4 0.8
v -2.3 4.4 0.7
v -2.3 4.8 0.8
v -2.3 4.8 0.7
v -2.3 6.1 0.8
v -2.3 6.1 0.7
v -2.1 1.3 0.9
v -2.1 1.3 0.8
v -2.1 5.8 0.9
v -2.1 5.8 0.8
v -2 1.2 0.9
v -2 1.2 0.8
v -2 1.3 0.9
v -2 1.3 0.8
v -2 5.8 0.9
v -2 5.8 0.8
v -2 5.9 0.9
v -2 5.9 0.8
v -1.9 1.1 0.9
v -1.9 1.1 0.8
v -1.9 1.2 0.9
v -1.9 1.2 0.8
v -1.9 5.9 0.9
v -1.9 5.9 0.8
v -1.9 6 0.9
v -1.9 6 0.8
v -2.38419e-07 3.5 0.9
v -2.38419e-07 3.5 0.7
v -2.38419e-07 3.6 0.9
v -2.38419e-07 3.6 0.7
v 0.0999999 0.8 0.8
v 0.0999999 0.8 0.7
v 0.0999999 3.3 0.9
v 0.0999999 3.3 0.8
v 0.0999999 3.5 0.9
v 0.0999999 3.5 0.8
v 0.0999999 3.5 0.7
v 0.0999999 3.6 0.9
v 0.0999999 3.6 0.8
v 0.0999999 3.6 0.7
v 0.0999999 3.7 0.9
v 0.0999999 3.7 0.8
v 0.0999999 6.1 0.8
v 0.0999999 6.1 0.7
v 0.2 3.2 0.9
v 0.2 3.2 0.8
v 0.2 3.3 0.9
v 0.2 3.3 0.8
v 0.3 1.3 0.9
v 0.3 1.3 0.8
v 0.3 3.2 0.9
v 0.3 3.2 0.8
v 0.3 3.3 0.9
v 0.3 3.3 0.8
v 0.3 3.5 0.9
v 0.3 3.5 0.8
v 0.3 3.7 0.9
v 0.3 3.7 0.8
v 0.3 5.8 0.9
v 0.3 5.8 0.8
v 0.4 1.2 0.9
v 0.4 1.2 0.8
v 0.4 1.3 0.9
v 0.4 1.3 0.8
v 0.4 3.5 0.9
v 0.4 3.5 0.8
v 0.4 3.6 0.9
v 0.4 3.6 0.8
v 0.4 5.8 0.9
v 0.4 5.8 0.8
v 0.4 5.9 0.9
v 0.4 5.9 0.8
v 0.5 1.1 0.9
v 0.5 1.1 0.8
v 0.5 1.2 0.9
v 0.5 1.2 0.8
v 0.5 5.9 0.9
v 0.5 5.9 0.8
v 0.5 6 0.9
v 0.5 6 0.8
v 2.1 0.8 0.6
v 2.1 0.8 0.2
v 2.1 0.8 -0.8
v 2.1 5.5 0.6
v 2.1 5.5 0.5
v 2.1 5.6 0.6
v 2.1 5.6 0.5
v 2.1 6.1 0.6
v 2.1 6.1 -0.8
v 2.2 5.5 0.6
v 2.2 5.5 0.5
v 2.2 5.6 0.6
v 2.2 5.6 0.5
v -2.2 5.5 0.6
v -2.2 5.5 0.5
v -2.2 5.6 0.6
v -2.2 5.6 0.5
v -2.1 0.8 0.6
v -2.1 0.8 0.2
v -2.1 0.8 -0.8
v -2.1 5.5 0.6
v -2.1 5.5 0.5
v -2.1 5.6 0.6
v -2.1 5.6 0.5
v -2.1 6.1 0.6
v -2.1 6.1 -0.8
v -0.5 1.1 0.9
v -0.5 1.1 0.8
v -0.5 1.2 0.9
v -0.5 1.2 0.8
v -0.5 5.9 0.9
v -0.5 5.9 0.8
v -0.5 6 0.9
v -0.5 6 0.8
v -0.4 1.2 0.9
v -0.4 1.2 0.8
v -0.4 1.3 0.9
v -0.4 1.3 0.8
v -0.4 5.8 0.9
v -0.4 5.8 0.8
v -0.4 5.9 0.9
v -0.4 5.9 0.8
v -0.3 1.3 0.9
v -0.3 1.3 0.8
v -0.3 5.8 0.9
v -0.3 5.8 0.8
v -0.1 0.8 0.8
v -0.1 0.8 0.7
v -0.1 6.1 0.8
v -0.1 6.1 0.7
v 0.0999999 3.5 0.9
v 0.0999999 3.5 0.8
v 0.0999999 3.6 0.9
v 0.0999999 3.6 0.8
v 0.2 3.3 0.9
v 0.2 3.3 0.8
v 0.2 3.5 0.9
v 0.2 3.5 0.8
v 1.9 1.1 0.9
v 1.9 1.1 0.8
v 1.9 1.2 0.9
v 1.9 1.2 0.8
v 1.9 5.9 0.9
v 1.9 5.9 0.8
v 1.9 6 0.9
v 1.9 6 0.8
v 2 1.2 0.9
v 2 1.2 0.8
v 2 1.3 0.9
v 2 1.3 0.8
v 2 5.8 0.9
v 2 5.8 0.8
v 2 5.9 0.9
v 2 5.9 0.8
v 2.1 1.3 0.9
v 2.1 1.3 0.8
v 2.1 5.8 0.9
v 2.1 5.8 0.8
v 2.3 0.8 0.8
v 2.3 0.8 0.7
v 2.3 1.5 0.8
v 2.3 1.5 0.7
v 2.3 1.9 0.8
v 2.3 1.9 0.7
v 2.3 4.4 0.8
v 2.3 4.4 0.7
v 2.3 4.8 0.8
v 2.3 4.8 0.7
v 2.3 6.1 0.8
v 2.3 6.1 0.7
v 2.4 0.7 0.2
v 2.4 0.7 -1
v 2.4 0.8 0.7
v 2.4 0.8 0.2
v 2.4 1.5 0.8
v 2.4 1.5 0.7
v 2.4 1.9 0.8
v 2.4 1.9 0.7
v 2.4 4.4 0.8
v 2.4 4.4 0.7
v 2.4 4.8 0.8
v 2.4 4.8 0.7
v 2.4 6.1 0.7
v 2.4 6.1 -1
v -2.1 1.3 0.9
v -2.1 5.8 0.9
v -2 1.2 0.9
v -2 1.3 0.9
v -2 5.8 0.9
v -2 5.9 0.9
v -1.9 1.1 0.9
v -1.9 1.2 0.9
v -1.9 5.9 0.9
v -1.9 6 0.9
v -0.5 1.1 0.9
v -0.5 1.2 0.9
v -0.5 5.9 0.9
v -0.5 6 0.9
v -0.4 1.2 0.9
v -0.4 1.3 0.9
v -0.4 5.8 0.9
v -0.4 5.9 0.9
v -0.3 1.3 0.9
v -0.3 5.8 0.9
v -2.38419e-07 3.5 0.9
v -2.38419e-07 3.6 0.9
v 0.0999999 3.3 0.9
v 0.0999999 3.5 0.9
v 0.0999999 3.6 0.9
v 0.0999999 3.7 0.9
v 0.2 3.2 0.9
v 0.2 3.3 0.9
v 0.2 3.5 0.9
v 0.3 1.3 0.9
v 0.3 3.2 0.9
v 0.3 3.3 0.9
v 0.3 3.5 0.9
v 0.3 3.7 0.9
v 0.3 5.8 0.9
v 0.4 1.2 0.9
v 0.4 1.3 0.9
v 0.4 3.3 0.9
v 0.4 3.5 0.9
v 0.4 3.6 0.9
v 0.4 3.7 0.9
v 0.4 5.8 0.9
v 0.4 5.9 0.9
v 0.5 1.1 0.9
v 0.5 1.2 0.9
v 0.5 3.5 0.9
v 0.5 3.6 0.9
v 0.5 5.9 0.9
v 0.5 6 0.9
v 1.9 1.1 0.9
v 1.9 1.2 0.9
v 1.9 5.9 0.9
v 1.9 6 0.9
v 2 1.2 0.9
v 2 1.3 0.9
v 2 5.8 0.9
v 2 5.9 0.9
v 2.1 1.3 0.9
v 2.1 5.8 0.9
v -2.4 1.5 0.8
v -2.4 1.9 0.8
v -2.4 4.4 0.8
v -2.4 4.8 0.8
v -2.3 0.8 0.8
v -2.3 1.5 0.8
v -2.3 1.9 0.8
v -2.3 4.4 0.8
v -2.3 4.8 0.8
v -2.3 6.1 0.8
v -2.1 1.3 0.8
v -2.1 5.8 0.8
v -2 1.2 0.8
v -2 1.3 0.8
v -2 5.8 0.8
v -2 5.9 0.8
v -1.9 1.1 0.8
v -1.9 1.2 0.8
v -1.9 5.9 0.8
v -1.9 6 0.8
v -0.5 1.1 0.8
v -0.5 1.2 0.8
v -0.5 5.9 0.8
v -0.5 6 0.8
v -0.4 1.2 0.8
v -0.4 1.3 0.8
v -0.4 5.8 0.8
v -0.4 5.9 0.8
v -0.3 1.3 0.8
v -0.3 5.8 0.8
v -0.1 0.8 0.8
v -0.1 6.1 0.8
v 0.0999999 0.8 0.8
v 0.0999999 3.3 0.8
v 0.0999999 3.5 0.8
v 0.0999999 3.6 0.8
v 0.0999999 3.7 0.8
v 0.0999999 6.1 0.8
v 0.2 3.2 0.8
v 0.2 3.3 0.8
v 0.2 3.5 0.8
v 0.3 1.3 0.8
v 0.3 3.2 0.8
v 0.3 3.3 0.8
v 0.3 3.5 0.8
v 0.3 3.7 0.8
v 0.3 5.8 0.8
v 0.4 1.2 0.8
v 0.4 1.3 0.8
v 0.4 3.5 0.8
v 0.4 3.6 0.8
v 0.4 5.8 0.8
v 0.4 5.9 0.8
v 0.5 1.1 0.8
v 0.5 1.2 0.8
v 0.5 5.9 0.8
v 0.5 6 0.8
v 1.9 1.1 0.8
v 1.9 1.2 0.8
v 1.9 5.9 0.8
v 1.9 6 0.8
v 2 1.2 0.8
v 2 1.3 0.8
v 2 5.8 0.8
v 2 5.9 0.8
v 2.1 1.3 0.8
v 2.1 5.8 0.8
v 2.3 0.8 0.8
v 2.3 1.5 0.8
v 2.3 1.9 0.8
v 2.3 4.4 0.8
v 2.3 4.8 0.8
v 2.3 6.1 0.8
v 2.4 1.5 0.8
v 2.4 1.9 0.8
v 2.4 4.4 0.8
v 2.4 4.8 0.8
v -2.4 0.8 0.7
v -2.4 1.5 0.7
v -2.4 1.9 0.7
v -2.4 4.4 0.7
v -2.4 4.8 0.7
v -2.4 6.1 0.7
v -2.3 0.8 0.7
v -2.3 1.5 0.7
v -2.3 1.9 0.7
v -2.3 4.4 0.7
v -2.3 4.8 0.7
v -2.3 6.1 0.7
v -0.1 0.8 0.7
v -0.1 6.1 0.7
v -2.38419e-07 3.5 0.7
v -2.38419e-07 3.6 0.7
v 0.0999999 0.8 0.7
v 0.0999999 3.5 0.7
v 0.0999999 3.6 0.7
v 0.0999999 6.1 0.7
v 2.3 0.8 0.7
v 2.3 1.5 0.7
v 2.3 1.9 0.7
v 2.3 4.4 0.7
v 2.3 4.8 0.7
v 2.3 6.1 0.7
v 2.4 0.8 0.7
v 2.4 1.5 0.7
v 2.4 1.9 0.7
v 2.4 4.4 0.7
v 2.4 4.8 0.7
v 2.4 6.1 0.7
v -2.2 5.5 0.5
v -2.2 5.6 0.5
v -2.1 5.5 0.5
v -2.1 5.6 0.5
v 2.1 5.5 0.5
v 2.1 5.6 0.5
v 2.2 5.5 0.5
v 2.2 5.6 0.5
v -2.4 0.7 0.2
v -2.4 0.8 0.2
v -2.1 0.8 0.2
v 2.1 0.8 0.2
v 2.4 0.7 0.2
v 2.4 0.8 0.2
v -2.1 0.8 -0.8
v -2.1 6.1 -0.8
v 2.1 0.8 -0.8
v 2.1 6.1 -0.8
v -2.2 5.5 0.6
v -2.2 5.6 0.6
v -2.1 0.8 0.6
v -2.1 5.5 0.6
v -2.1 5.6 0.6
v -2.1 6.1 0.6
v 2.1 0.8 0.6
v 2.1 5.5 0.6
v 2.1 5.6 0.6
v 2.1 6.1 0.6
v 2.2 5.5 0.6
v 2.2 5.6 0.6
v -2.4 0.7 -1
v -2.4 6.1 -1
v 2.4 0.7 -1
v 2.4 6.1 -1
v -2.4 0.7 0.2
v 2.4 0.7 0.2
v -2.4 0.7 -1
v 2.4 0.7 -1
v -2.3 0.8 0.8
v -0.1 0.8 0.8
v 0.0999999 0.8 0.8
v 2.3 0.8 0.8
v -2.4 0.8 0.7
v -2.3 0.8 0.7
v -0.1 0.8 0.7
v 0.0999999 0.8 0.7
v 2.3 0.8 0.7
v 2.4 0.8 0.7
v -2.1 0.8 0.6
v 2.1 0.8 0.6
v -2.4 0.8 0.2
v -2.1 0.8 0.2
v 2.1 0.8 0.2
v 2.4 0.8 0.2
v -1.9 1.1 0.9
v -0.5 1.1 0.9
v 0.5 1.1 0.9
v 1.9 1.1 0.9
v -1.9 1.1 0.8
v -0.5 1.1 0.8
v 0.5 1.1 0.8
v 1.9 1.1 0.8
v -2 1.2 0.9
v -1.9 1.2 0.9
v -0.5 1.2 0.9
v -0.4 1.2 0.9
v 0.4 1.2 0.9
v 0.5 1.2 0.9
v 1.9 1.2 0.9
v 2 1.2 0.9
v -2 1.2 0.8
v -1.9 1.2 0.8
v -0.5 1.2 0.8
v -0.4 1.2 0.8
v 0.4 1.2 0.8
v 0.5 1.2 0.8
v 1.9 1.2 0.8
v 2 1.2 0.8
v -2.1 1.3 0.9
v -2 1.3 0.9
v -0.4 1.3 0.9
v -0.3 1.3 0.9
v 0.3 1.3 0.9
v 0.4 1.3 0.9
v 2 1.3 0.9
v 2.1 1.3 0.9
v -2.1 1.3 0.8
v -2 1.3 0.8
v -0.4 1.3 0.8
v -0.3 1.3 0.8
v 0.3 1.3 0.8
v 0.4 1.3 0.8
v 2 1.3 0.8
v 2.1 1.3 0.8
v -2.4 1.5 0.8
v -2.3 1.5 0.8
v 2.3 1.5 0.8
v 2.4 1.5 0.8
v -2.4 1.5 0.7
v -2.3 1.5 0.7
v 2.3 1.5 0.7
v 2.4 1.5 0.7
v 0.2 3.2 0.9
v 0.3 3.2 0.9
v 0.2 3.2 0.8
v 0.3 3.2 0.8
v 0.0999999 3.3 0.9
v 0.2 3.3 0.9
v 0.0999999 3.3 0.8
v 0.2 3.3 0.8
v -2.38419e-07 3.5 0.9
v 0.0999999 3.5 0.9
v 0.0999999 3.5 0.8
v -2.38419e-07 3.5 0.7
v 0.0999999 3.5 0.7
v 0.0999999 3.6 0.9
v 0.4 3.6 0.9
v 0.0999999 3.6 0.8
v 0.4 3.6 0.8
v -2.4 4.4 0.8
v -2.3 4.4 0.8
v 2.3 4.4 0.8
v 2.4 4.4 0.8
v -2.4 4.4 0.7
v -2.3 4.4 0.7
v 2.3 4.4 0.7
v 2.4 4.4 0.7
v -2.2 5.6 0.6
v -2.1 5.6 0.6
v 2.1 5.6 0.6
v 2.2 5.6 0.6
v -2.2 5.6 0.5
v -2.1 5.6 0.5
v 2.1 5.6 0.5
v 2.2 5.6 0.5
v -2.1 0.8 0.2
v 2.1 0.8 0.2
v -2.1 0.8 -0.8
v 2.1 0.8 -0.8
v -2.4 1.9 0.8
v -2.3 1.9 0.8
v 2.3 1.9 0.8
v 2.4 1.9 0.8
v -2.4 1.9 0.7
v -2.3 1.9 0.7
v 2.3 1.9 0.7
v 2.4 1.9 0.7
v 0.2 3.3 0.9
v 0.3 3.3 0.9
v 0.2 3.3 0.8
v 0.3 3.3 0.8
v 0.0999999 3.5 0.9
v 0.2 3.5 0.9
v 0.3 3.5 0.9
v 0.4 3.5 0.9
v 0.0999999 3.5 0.8
v 0.2 3.5 0.8
v 0.3 3.5 0.8
v 0.4 3.5 0.8
v -2.38419e-07 3.6 0.9
v 0.0999999 3.6 0.9
v 0.0999999 3.6 0.8
v -2.38419e-07 3.6 0.7
v 0.0999999 3.6 0.7
v 0.0999999 3.7 0.9
v 0.3 3.7 0.9
v 0.0999999 3.7 0.8
v 0.3 3.7 0.8
v -2.4 4.8 0.8
v -2.3 4.8 0.8
v 2.3 4.8 0.8
v 2.4 4.8 0.8
v -2.4 4.8 0.7
v -2.3 4.8 0.7
v 2.3 4.8 0.7
v 2.4 4.8 0.7
v -2.2 5.5 0.6
v -2.1 5.5 0.6
v 2.1 5.5 0.6
v 2.2 5.5 0.6
v -2.2 5.5 0.5
v -2.1 5.5 0.5
v 2.1 5.5 0.5
v 2.2 5.5 0.5
v -2.1 5.8 0.9
v -2 5.8 0.9
v -0.4 5.8 0.9
v -0.3 5.8 0.9
v 0.3 5.8 0.9
v 0.4 5.8 0.9
v 2 5.8 0.9
v 2.1 5.8 0.9
v -2.1 5.8 0.8
v -2 5.8 0.8
v -0.4 5.8 0.8
v -0.3 5.8 0.8
v 0.3 5.8 0.8
v 0.4 5.8 0.8
v 2 5.8 0.8
v 2.1 5.8 0.8
v -2 5.9 0.9
v -1.9 5.9 0.9
v -0.5 5.9 0.9
v -0.4 5.9 0.9
v 0.4 5.9 0.9
v 0.5 5.9 0.9
v 1.9 5.9 0.9
v 2 5.9 0.9
v -2 5.9 0.8
v -1.9 5.9 0.8
v -0.5 5.9 0.8
v -0.4 5.9 0.8
v 0.4 5.9 0.8
v 0.5 5.9 0.8
v 1.9 5.9 0.8
v 2 5.9 0.8
v -1.9 6 0.9
v -0.5 6 0.9
v 0.5 6 0.9
v 1.9 6 0.9
v -1.9 6 0.8
v -0.5 6 0.8
v 0.5 6 0.8
v 1.9 6 0.8
v -2.3 6.1 0.8
v -0.1 6.1 0.8
v 0.0999999 6.1 0.8
v 2.3 6.1 0.8
v -2.4 6.1 0.7
v -2.3 6.1 0.7
v -0.1 6.1 0.7
v 0.0999999 6.1 0.7
v 2.3 6.1 0.7
v 2.4 6.1 0.7
v -2.1 6.1 0.6
v 2.1 6.1 0.6
v -2.1 6.1 -0.8
v 2.1 6.1 -0.8
v -2.4 6.1 -1
v 2.4 6.1 -1

# faces
f 4/1/1 2/1/1 1/1/1
f 6/1/1 4/1/1 3/1/1
f 7/2/1 6/2/1 5/2/1
f 8/1/1 4/1/1 6/1/1
f 8/2/1 6/2/1 7/2/1
f 10/1/1 4/1/1 8/1/1
f 11/2/1 10/2/1 9/2/1
f 12/1/1 4/1/1 10/1/1
f 12/2/1 10/2/1 11/2/1
f 13/1/1 4/1/1 12/1/1
f 14/1/1 2/1/1 4/1/1
f 14/1/1 4/1/1 13/1/1
f 17/1/1 16/1/1 15/1/1
f 18/1/1 16/1/1 17/1/1
f 21/1/1 20/1/1 19/1/1
f 22/1/1 20/1/1 21/1/1
f 25/1/1 24/1/1 23/1/1
f 26/1/1 24/1/1 25/1/1
f 29/1/1 28/1/1 27/1/1
f 30/1/1 28/1/1 29/1/1
f 33/1/1 32/1/1 31/1/1
f 34/1/1 32/1/1 33/1/1
f 37/1/1 36/1/1 35/1/1
f 38/1/1 36/1/1 37/1/1
f 41/1/1 40/1/1 39/1/1
f 42/1/1 40/1/1 41/1/1
f 45/1/1 44/1/1 43/1/1
f 46/1/1 44/1/1 45/1/1
f 49/2/1 48/2/1 47/2/1
f 50/2/1 48/2/1 49/2/1
f 54/1/1 52/1/1 51/1/1
f 55/2/1 54/2/1 53/2/1
f 56/1/1 52/1/1 54/1/1
f 56/2/1 54/2/1 55/2/1
f 57/1/1 52/1/1 56/1/1
f 61/2/1 59/2/1 58/2/1
f 62/1/1 60/1/1 59/1/1
f 62/2/1 59/2/1 61/2/1
f 63/1/1 60/1/1 62/1/1
f 64/1/1 60/1/1 63/1/1
f 67/2/1 66/2/1 65/2/1
f 68/2/1 66/2/1 67/2/1
f 71/1/1 70/1/1 69/1/1
f 72/1/1 70/1/1 71/1/1
f 75/2/1 74/2/1 73/2/1
f 76/2/1 74/2/1 75/2/1
f 79/1/1 78/1/1 77/1/1
f 80/1/1 78/1/1 79/1/1
f 83/1/1 82/1/1 81/1/1
f 84/1/1 82/1/1 83/1/1
f 87/2/1 86/2/1 85/2/1
f 88/2/1 86/2/1 87/2/1
f 91/1/1 90/1/1 89/1/1
f 92/1/1 90/1/1 91/1/1
f 95/1/1 94/1/1 93/1/1
f 96/1/1 94/1/1 95/1/1
f 99/1/1 98/1/1 97/1/1
f 100/1/1 98/1/1 99/1/1
f 104/1/1 102/1/1 101/1/1
f 104/1/1 103/1/1 102/1/1
f 105/1/1 103/1/1 104/1/1
f 107/1/1 103/1/1 105/1/1
f 108/1/1 107/1/1 106/1/1
f 109/1/1 103/1/1 107/1/1
f 109/1/1 107/1/1 108/1/1
f 112/1/1 111/1/1 110/1/1
f 113/1/1 111/1/1 112/1/1
f 114/1/2 115/1/2 116/1/2
f 116/1/2 115/1/2 117/1/2
f 118/1/2 119/1/2 121/1/2
f 119/1/2 120/1/2 121/1/2
f 121/1/2 120/1/2 122/1/2
f 122/1/2 120/1/2 124/1/2
f 123/1/2 124/1/2 125/1/2
f 124/1/2 120/1/2 126/1/2
f 125/1/2 124/1/2 126/1/2
f 127/1/2 128/1/2 129/1/2
f 129/1/2 128/1/2 130/1/2
f 131/1/2 132/1/2 133/1/2
f 133/1/2 132/1/2 134/1/2
f 135/1/2 136/1/2 137/1/2
f 137/1/2 136/1/2 138/1/2
f 139/1/2 140/1/2 141/1/2
f 141/1/2 140/1/2 142/1/2
f 143/1/2 144/1/2 145/1/2
f 145/1/2 144/1/2 146/1/2
f 147/1/2 148/1/2 149/1/2
f 149/1/2 148/1/2 150/1/2
f 151/2/2 152/2/2 153/2/2
f 153/2/2 152/2/2 154/2/2
f 155/2/2 156/2/2 157/2/2
f 157/2/2 156/2/2 158/2/2
f 159/1/2 160/1/2 161/1/2
f 161/1/2 160/1/2 162/1/2
f 163/1/2 164/1/2 165/1/2
f 165/1/2 164/1/2 166/1/2
f 167/1/2 168/1/2 169/1/2
f 169/1/2 168/1/2 170/1/2
f 171/1/2 172/1/2 173/1/2
f 173/1/2 172/1/2 174/1/2
f 175/1/2 176/1/2 177/1/2
f 177/1/2 176/1/2 178/1/2
f 179/1/2 180/1/2 181/1/2
f 181/1/2 180/1/2 182/1/2
f 183/1/2 184/1/2 185/1/2
f 185/1/2 184/1/2 186/1/2
f 187/1/2 188/1/2 189/1/2
f 189/1/2 188/1/2 190/1/2
f 191/1/2 192/1/2 194/1/2
f 193/1/2 194/1/2 196/1/2
f 195/2/2 196/2/2 197/2/2
f 196/1/2 194/1/2 198/1/2
f 197/2/2 196/2/2 198/2/2
f 198/1/2 194/1/2 200/1/2
f 199/2/2 200/2/2 201/2/2
f 200/1/2 194/1/2 202/1/2
f 201/2/2 200/2/2 202/2/2
f 202/1/2 194/1/2 203/1/2
f 194/1/2 192/1/2 204/1/2
f 203/1/2 194/1/2 204/1/2
f 208/1/3 206/1/3 205/1/3
f 209/1/3 206/1/3 208/1/3
f 212/1/3 208/1/3 207/1/3
f 212/1/3 210/1/3 209/1/3
f 212/1/3 209/1/3 208/1/3
f 213/1/3 210/1/3 212/1/3
f 215/1/3 212/1/3 211/1/3
f 215/1/3 214/1/3 213/1/3
f 215/1/3 213/1/3 212/1/3
f 216/1/3 214/1/3 215/1/3
f 217/1/3 214/1/3 216/1/3
f 218/1/3 214/1/3 217/1/3
f 219/1/3 217/1/3 216/1/3
f 220/1/3 217/1/3 219/1/3
f 221/1/3 217/1/3 220/1/3
f 222/1/3 217/1/3 221/1/3
f 223/1/3 221/1/3 220/1/3
f 224/1/3 221/1/3 223/1/3
f 228/2/3 226/2/3 225/2/3
f 229/2/3 226/2/3 228/2/3
f 232/2/3 228/2/3 227/2/3
f 233/2/3 228/2/3 232/2/3
f 235/2/3 232/2/3 231/2/3
f 236/2/3 232/2/3 235/2/3
f 238/2/3 230/2/3 229/2/3
f 241/1/3 236/1/3 235/1/3
f 241/1/3 235/1/3 234/1/3
f 242/2/3 237/2/3 236/2/3
f 242/1/3 236/1/3 241/1/3
f 243/2/3 237/2/3 242/2/3
f 244/2/3 238/2/3 229/2/3
f 245/1/3 239/1/3 238/1/3
f 245/2/3 238/2/3 244/2/3
f 246/1/3 239/1/3 245/1/3
f 249/1/3 241/1/3 240/1/3
f 249/1/3 243/1/3 242/1/3
f 249/1/3 242/1/3 241/1/3
f 250/2/3 244/2/3 243/2/3
f 250/1/3 243/1/3 249/1/3
f 251/1/3 246/1/3 245/1/3
f 251/2/3 244/2/3 250/2/3
f 251/1/3 247/1/3 246/1/3
f 251/1/3 245/1/3 244/1/3
f 252/1/3 247/1/3 251/1/3
f 254/1/3 252/1/3 251/1/3
f 254/1/3 253/1/3 252/1/3
f 254/1/3 251/1/3 250/1/3
f 254/1/3 250/1/3 249/1/3
f 254/1/3 249/1/3 248/1/3
f 255/1/3 253/1/3 254/1/3
f 256/1/3 253/1/3 255/1/3
f 257/1/3 253/1/3 256/1/3
f 258/1/3 256/1/3 255/1/3
f 259/1/3 256/1/3 258/1/3
f 260/1/3 256/1/3 259/1/3
f 261/1/3 256/1/3 260/1/3
f 262/1/3 260/1/3 259/1/3
f 263/1/3 260/1/3 262/1/3
f 269/2/3 265/2/3 264/2/3
f 270/2/3 265/2/3 269/2/3
f 271/2/3 267/2/3 266/2/3
f 272/2/3 267/2/3 271/2/3
f 274/1/3 270/1/3 269/1/3
f 274/1/3 273/1/3 272/1/3
f 274/1/3 272/1/3 271/1/3
f 274/1/3 271/1/3 270/1/3
f 274/1/3 269/1/3 268/1/3
f 275/1/3 273/1/3 274/1/3
f 276/1/3 274/1/3 268/1/3
f 277/1/3 274/1/3 276/1/3
f 278/1/3 273/1/3 275/1/3
f 279/1/3 273/1/3 278/1/3
f 280/1/3 276/1/3 268/1/3
f 281/1/3 276/1/3 280/1/3
f 282/1/3 273/1/3 279/1/3
f 283/1/3 273/1/3 282/1/3
f 284/1/3 280/1/3 268/1/3
f 287/1/3 273/1/3 283/1/3
f 288/1/3 285/1/3 284/1/3
f 291/1/3 287/1/3 286/1/3
f 292/1/3 289/1/3 288/1/3
f 293/1/3 291/1/3 290/1/3
f 294/1/3 292/1/3 288/1/3
f 294/1/3 293/1/3 292/1/3
f 294/1/3 284/1/3 268/1/3
f 294/1/3 288/1/3 284/1/3
f 295/1/3 291/1/3 293/1/3
f 295/1/3 293/1/3 294/1/3
f 295/1/3 273/1/3 287/1/3
f 295/1/3 287/1/3 291/1/3
f 302/1/3 297/1/3 296/1/3
f 303/1/3 297/1/3 302/1/3
f 304/1/3 299/1/3 298/1/3
f 305/1/3 302/1/3 296/1/3
f 306/1/3 302/1/3 305/1/3
f 307/1/3 304/1/3 303/1/3
f 308/1/3 299/1/3 304/1/3
f 308/1/3 304/1/3 307/1/3
f 309/1/3 301/1/3 300/1/3
f 310/1/3 301/1/3 309/1/3
f 311/1/3 305/1/3 296/1/3
f 312/1/3 305/1/3 311/1/3
f 313/1/3 299/1/3 308/1/3
f 314/1/3 299/1/3 313/1/3
f 315/1/3 301/1/3 310/1/3
f 316/1/3 301/1/3 315/1/3
f 317/1/3 311/1/3 296/1/3
f 318/1/3 311/1/3 317/1/3
f 319/1/3 301/1/3 316/1/3
f 320/1/3 301/1/3 319/1/3
f 321/1/3 317/1/3 296/1/3
f 324/1/3 301/1/3 320/1/3
f 325/1/3 322/1/3 321/1/3
f 328/1/3 324/1/3 323/1/3
f 329/1/3 326/1/3 325/1/3
f 330/1/3 328/1/3 327/1/3
f 331/1/3 329/1/3 325/1/3
f 331/1/3 330/1/3 329/1/3
f 331/1/3 321/1/3 296/1/3
f 331/1/3 325/1/3 321/1/3
f 332/1/3 330/1/3 331/1/3
f 333/1/3 330/1/3 332/1/3
f 334/1/3 330/1/3 333/1/3
f 335/1/3 330/1/3 334/1/3
f 336/1/3 328/1/3 330/1/3
f 336/1/3 330/1/3 335/1/3
f 336/1/3 301/1/3 324/1/3
f 336/1/3 324/1/3 328/1/3
f 337/2/3 333/2/3 332/2/3
f 338/2/3 333/2/3 337/2/3
f 339/2/3 335/2/3 334/2/3
f 340/2/3 335/2/3 339/2/3
f 347/1/3 342/1/3 341/1/3
f 348/1/3 342/1/3 347/1/3
f 349/1/3 344/1/3 343/1/3
f 350/1/3 344/1/3 349/1/3
f 351/1/3 346/1/3 345/1/3
f 352/1/3 346/1/3 351/1/3
f 355/1/3 354/1/3 353/1/3
f 356/1/3 354/1/3 355/1/3
f 357/1/3 355/1/3 353/1/3
f 358/1/3 355/1/3 357/1/3
f 359/1/3 354/1/3 356/1/3
f 360/1/3 354/1/3 359/1/3
f 367/1/3 362/1/3 361/1/3
f 368/1/3 362/1/3 367/1/3
f 369/1/3 364/1/3 363/1/3
f 370/1/3 364/1/3 369/1/3
f 371/1/3 366/1/3 365/1/3
f 372/1/3 366/1/3 371/1/3
f 375/1/3 374/1/3 373/1/3
f 376/1/3 374/1/3 375/1/3
f 379/1/3 378/1/3 377/1/3
f 380/1/3 378/1/3 379/1/3
f 383/1/3 382/1/3 381/1/3
f 384/1/3 383/1/3 381/1/3
f 385/1/3 384/1/3 381/1/3
f 386/1/3 384/1/3 385/1/3
f 389/1/3 388/1/3 387/1/3
f 390/1/3 388/1/3 389/1/3
f 391/1/4 392/1/4 394/1/4
f 394/1/4 392/1/4 395/1/4
f 393/1/4 394/1/4 397/1/4
f 395/1/4 396/1/4 397/1/4
f 394/1/4 395/1/4 397/1/4
f 397/1/4 396/1/4 398/1/4
f 398/1/4 396/1/4 399/1/4
f 399/1/4 396/1/4 400/1/4
f 398/1/4 399/1/4 401/1/4
f 401/1/4 399/1/4 402/1/4
f 403/1/4 404/1/4 405/1/4
f 405/1/4 404/1/4 406/1/4
f 409/1/5 408/1/5 407/1/5
f 410/1/5 408/1/5 409/1/5
f 416/1/5 412/1/5 411/1/5
f 417/1/5 412/1/5 416/1/5
f 418/1/5 414/1/5 413/1/5
f 419/1/5 414/1/5 418/1/5
f 421/1/5 417/1/5 416/1/5
f 421/1/5 420/1/5 419/1/5
f 421/1/5 419/1/5 418/1/5
f 421/1/5 418/1/5 417/1/5
f 421/1/5 416/1/5 415/1/5
f 422/1/5 420/1/5 421/1/5
f 423/1/5 421/1/5 415/1/5
f 424/1/5 421/1/5 423/1/5
f 425/1/5 420/1/5 422/1/5
f 426/1/5 420/1/5 425/1/5
f 431/1/5 428/1/5 427/1/5
f 432/1/5 428/1/5 431/1/5
f 433/1/5 430/1/5 429/1/5
f 434/1/5 430/1/5 433/1/5
f 443/1/5 436/1/5 435/1/5
f 444/1/5 436/1/5 443/1/5
f 445/1/5 438/1/5 437/1/5
f 446/1/5 438/1/5 445/1/5
f 447/1/5 440/1/5 439/1/5
f 448/1/5 440/1/5 447/1/5
f 449/1/5 442/1/5 441/1/5
f 450/1/5 442/1/5 449/1/5
f 459/1/5 452/1/5 451/1/5
f 460/1/5 452/1/5 459/1/5
f 461/1/5 454/1/5 453/1/5
f 462/1/5 454/1/5 461/1/5
f 463/1/5 456/1/5 455/1/5
f 464/1/5 456/1/5 463/1/5
f 465/1/5 458/1/5 457/1/5
f 466/1/5 458/1/5 465/1/5
f 471/2/5 468/2/5 467/2/5
f 472/2/5 468/2/5 471/2/5
f 473/2/5 470/2/5 469/2/5
f 474/2/5 470/2/5 473/2/5
f 477/2/5 476/2/5 475/2/5
f 478/2/5 476/2/5 477/2/5
f 481/2/5 480/2/5 479/2/5
f 482/2/5 480/2/5 481/2/5
f 485/2/5 484/2/5 483/2/5
f 486/2/5 485/2/5 483/2/5
f 487/2/5 485/2/5 486/2/5
f 490/2/5 489/2/5 488/2/5
f 491/2/5 489/2/5 490/2/5
f 496/2/5 493/2/5 492/2/5
f 497/2/5 493/2/5 496/2/5
f 498/2/5 495/2/5 494/2/5
f 499/2/5 495/2/5 498/2/5
f 504/1/5 501/1/5 500/1/5
f 505/1/5 501/1/5 504/1/5
f 506/1/5 503/1/5 502/1/5
f 507/1/5 503/1/5 506/1/5
f 508/1/6 509/1/6 510/1/6
f 510/1/6 509/1/6 511/1/6
f 512/2/6 513/2/6 516/2/6
f 516/2/6 513/2/6 517/2/6
f 514/2/6 515/2/6 518/2/6
f 518/2/6 515/2/6 519/2/6
f 520/2/6 521/2/6 522/2/6
f 522/2/6 521/2/6 523/2/6
f 524/2/6 525/2/6 528/2/6
f 528/2/6 525/2/6 529/2/6
f 526/2/6 527/2/6 530/2/6
f 530/2/6 527/2/6 531/2/6
f 532/2/6 533/2/6 534/2/6
f 532/2/6 534/2/6 535/2/6
f 535/2/6 534/2/6 536/2/6
f 537/2/6 538/2/6 539/2/6
f 539/2/6 538/2/6 540/2/6
f 541/2/6 542/2/6 545/2/6
f 545/2/6 542/2/6 546/2/6
f 543/2/6 544/2/6 547/2/6
f 547/2/6 544/2/6 548/2/6
f 549/1/6 550/1/6 553/1/6
f 553/1/6 550/1/6 554/1/6
f 551/1/6 552/1/6 555/1/6
f 555/1/6 552/1/6 556/1/6
f 557/1/6 558/1/6 565/1/6
f 565/1/6 558/1/6 566/1/6
f 559/1/6 560/1/6 567/1/6
f 567/1/6 560/1/6 568/1/6
f 561/1/6 562/1/6 569/1/6
f 569/1/6 562/1/6 570/1/6
f 563/1/6 564/1/6 571/1/6
f 571/1/6 564/1/6 572/1/6
f 573/1/6 574/1/6 581/1/6
f 581/1/6 574/1/6 582/1/6
f 575/1/6 576/1/6 583/1/6
f 583/1/6 576/1/6 584/1/6
f 577/1/6 578/1/6 585/1/6
f 585/1/6 578/1/6 586/1/6
f 579/1/6 580/1/6 587/1/6
f 587/1/6 580/1/6 588/1/6
f 589/1/6 590/1/6 593/1/6
f 593/1/6 590/1/6 594/1/6
f 591/1/6 592/1/6 595/1/6
f 595/1/6 592/1/6 596/1/6
f 597/1/6 598/1/6 602/1/6
f 602/1/6 598/1/6 603/1/6
f 599/1/6 600/1/6 604/1/6
f 604/1/6 600/1/6 605/1/6
f 602/1/6 603/1/6 607/1/6
f 605/1/6 606/1/6 607/1/6
f 604/1/6 605/1/6 607/1/6
f 603/1/6 604/1/6 607/1/6
f 601/1/6 602/1/6 607/1/6
f 607/1/6 606/1/6 608/1/6
f 601/1/6 607/1/6 609/1/6
f 608/1/6 606/1/6 610/1/6
f 601/1/6 609/1/6 611/1/6
f 609/1/6 610/1/6 611/1/6
f 610/1/6 606/1/6 612/1/6
f 611/1/6 610/1/6 612/1/6
